<?xml version="1.0" encoding="utf-8"?>
<!-- Generator: Adobe Illustrator 19.2.1, SVG Export Plug-In . SVG Version: 6.00 Build 0)  -->
<svg version="1.1" id="Layer_1" xmlns="http://www.w3.org/2000/svg" xmlns:xlink="http://www.w3.org/1999/xlink" x="0px" y="0px"
	 width="300.2px" height="372.4px" viewBox="0 0 431.2 372.4" style="enable-background:new 0 0 431.2 372.4;" xml:space="preserve"
	>
<style type="text/css">
	.st0{display:none;}
	.st1{display:inline;fill:#7A7A7A;}
	.st2{fill:#FCFCFC;}
</style>
<g id="Layer_1_xA0_Image_1_" class="st0">
	<rect x="-31.6" y="-1" class="st1" width="920" height="432"/>
</g>
<g id="Layer_2" class="st0">
	
		<image style="display:inline;overflow:visible;enable-background:new    ;" width="922" height="247" id="Layer_1_xA0_Image" xlink:href="910B6DAEA680740E.png"  transform="matrix(1 0 0 1 48.4605 91)">
	</image>
</g>
<path d="M252.6,326.3C252.3,325.1,252.1,325.8,252.6,326.3L252.6,326.3z"/>
<path class="st2" d="M417.4,13.1c-4.9-0.7-9.9-1.3-14.9-1.9c-4.6-0.6-9.2-0.8-13.7-1.5c-4.6-0.7-9.6-0.6-14.1-1.6
	c-4.1-0.9-7.7-3.4-11.7-4.7c-4-1.3-7.6-2.3-11.8-2.9c-9.3-1.1-18.3-0.4-27.2,2.4c-3.6,1.2-7.4,1.9-10.8,3.9c-3.1,1.8-6.1,4.4-9,6.5
	c-6.1,4.5-12.2,12-15,18.9c-3.1,7.5-7,14.8-10.2,22.3c-3,7.1-4,15.6-7.6,22.4c-3.4,6.4-12.6,10-18.4,13.7
	c-7.5,4.7-15.2,9.4-22.5,14.4c-14.8,10.2-30.1,19.7-44.9,29.9c-5.8,4-11.3,8.1-17.2,12c-3.8,2.5-7.6,5-11.5,7.4
	c-3.1,2-6.7,3.4-9.5,5.9c-3.4,3.1-6.3,5.5-10.4,7.8c-3.3,1.9-6.6,4-10.2,5.5c-7.2,2.9-14.6,6.6-21.9,8.7c-8,2.3-15.6,5.5-23.6,7.9
	c-4.5,1.4-9.2,2.6-13.9,3.4c-3.7,0.7-7,2.3-10.6,3.3c-2.5,0.7-21.6,3.8-13.8,8.6c2.9,1.8,9.2,1.8,12.6,2c3.4,0.2,6.7,0.6,10.1,1.2
	c-3.6,2.9-6.7,3.6-11.2,5c-4.8,1.4-9.5,3.3-14.3,4.8c-9.5,2.9-19,6.1-28.5,9.4C8.3,229,4.6,231,2,233.5c-1.4,1.4-2.8,2.1-1.5,3.5
	c1,1,6.1,0.4,7.4,0.4c10-0.1,19.8-1.2,29.8-1.8c9.4-0.5,18.7-1.7,28.1-2.1c9.4-0.3,18.9,1.3,28.3,2.5c10,1.3,20.2,2.3,30.1,4.5
	c8.5,1.9,16.9,4,25.4,5.9c9.5,2.1,18.7,4.9,28,7.5c8.7,2.4,17.7,2.4,26.5,3.2c-0.8,4.7-4.2,12.1-2.4,16.7c0.6,1.6,2.1,2.8,3.3,4.2
	c1.9,2.4,3.6,4.9,5.6,7.3c8,9.3,15.9,18.9,23.4,28.7c3.4,4.4,6.4,8.8,9.2,13.5c3.1,5.4-1.4,8.6-5.5,12c-2.3,1.9-4.9,3.7-6.9,5.9
	c-1.4,1.6-2.1,3.8-3.5,5.3c-2.7,3-6.6,3-6.7,8.1c1.8-0.8,3.4-4.1,5.4-4.4c1.6-0.3,2.4,1,4.1,1.5c3.4,0.8,3.4-0.6,4.8-3.1
	c1.1-2,2.7-3.6,4.2-5.3c2.6-2.9,5.5-8.6,9.6-9.5c3.1-0.7,7.9,3,10,5.3c1.7,1.9,4.5,10.3,3.4,13c-1.5,3.7-8.9,4.2-12.1,4.7
	c-8,1.2-19.1-0.9-22.2,8.7c1.7,0.6,1.7-2,2.4-2.9c1.3-1.5,3-2.1,4.9-2.4c2.4-0.3,3.1,0.1,4.5,1.4c1.1,1,0.8,2.6,2.7,3.2
	c3.3,1,7.6-1.3,10.6-2.5c3.7-1.4,8.3-2,12.1-2.6c3.9-0.6,8,1.9,11.8,2.6c3.9,0.7,6.3,2.2,10,3.5c3.2,1.1,8.6,2.9,11.9,1.4
	c1.3-0.6,1.8-2,3.2-2.1c1.6-0.1,3.3,2.1,4.1,3.2c0.7-0.3-0.1-2.8-0.2-3.3c3.2,0.3,6.7,1.4,9.9,1.3c3.4-0.1,2.7-1,4.2-3
	c3.2-4.2,9.9,2.8,11.2,1.4c-1.9-2.9-4.4-4.6-8-4.6c-3.2,0-6,0-9.2-0.2c-3.5-0.2-6.8-1-10.3-1c-3.2,0-6.8,0.6-9.8-0.9
	c1.4-3,4.4-2.7,7.2-2.9c-2.4-2.3-6.6-1.1-9.6-1c-3.4,0.1-7,0.3-10.3-0.1c-7.1-0.8-10.7-4.4-12.2-11.3c2.1,1.2,5.2,4,7.8,3.6
	c0.9-0.2,1.9-1.3,2.8-1.1c1,0.2,1.6,2,2.7,2.5c-1.4-6.8-10-6.2-14.1-10.2c0.8-1.4,10.4,1.4,12.3,1.6c4.8,0.4,8.4,0.2,13,1.8
	c1.9,0.7,4,1.3,5.9,0.1c1.3-0.8,1.4-2.3,2.6-3c2.8-1.5,8.4,3.5,9.1,3c-2.8-4.1-4.8-5.8-9.9-5.7c-4.6,0.1-9.7-0.2-14.2-0.7
	c0,0.1,2.2-2.4,2.4-2.4c1.3-0.2,2.7,0.9,3.9,1.6c0.1,0,0.1,0.1,0.2,0.1c2.8-4.5-18.1-3-19.9-3.3c-3-0.4-7.7-0.6-9.6-3.2
	c-1.9-2.7-2.1-6.9-3.5-9.9c-3.2-7.3-5-15.6-7.2-23.3c-1.2-4.1-3.1-8.2-3.6-12.4c-0.4-3.3,1.6-6.1,2.9-9.1
	c5.5-12.7,14.1-23.9,22.2-35.1c3.7-5.1,8.8-7.8,13.5-11.9c5.6-4.8,10.6-10,15.7-15.3c5.4-5.6,11.3-10.7,16.2-16.7
	c4.6-5.7,8.8-12,12.6-18.1c7.4-11.7,15.9-24.4,18.3-38.3c2.7-15.3,0.8-30.6,0.6-46c-0.1-7.1,0.5-14,0.9-21.1
	c0.4-6.9,2.7-12.5,5.1-18.8c2.3-6.1,8.2-10.8,11.9-16.1c1.8-2.7,3-5.1,6.1-6.4c3.1-1.4,6.6-2.1,9.9-3c15.3-4.2,30.3-9.3,45.6-13.5
	C429.4,13.5,420.4,13.5,417.4,13.1z M252.6,326.3c-6.1-5.1-10.7-14.1-15.3-20.5c-4.8-6.9-10.2-13.3-15.3-20
	c-2.3-3.1-4.2-5.7-3.4-9.5c0.8-3.8,2.2-7.8,4.2-11.1c1.9-3.2,4.6-6.1,7.2-8.7c1.1-1,6.6-4.9,8-2.9c-1.5,1.7-4.7,6.9-1.5,7.5
	c-0.5,1.4-1.3,2.8-1.7,4.3c-0.3,0.7-0.4,1.5-0.4,2.3c-0.3,1,0.1,1.3,1.4,1c0.5,2.2-0.6,5.1-0.4,7.5c0.4,5.9,4.2,10.7,5.9,16.2
	c1.9,5.8,3.4,11.7,5.5,17.5C248.8,315.2,251.2,320.4,252.6,326.3z"/>
</svg>
